<svg width="24" height="31" viewBox="0 0 24 31" fill="none" xmlns="http://www.w3.org/2000/svg">
<path d="M23.9585 1.04874C23.9221 0.967384 23.863 0.898366 23.7882 0.850093C23.7134 0.80182 23.6262 0.776376 23.5373 0.776862H10.4995C10.4212 0.776993 10.3441 0.796801 10.2755 0.834473C10.2068 0.872144 10.1486 0.926475 10.1064 0.992487L0.0822939 16.93C0.0340351 16.9994 0.00583936 17.0808 0.000813382 17.1652C-0.00421259 17.2496 0.0141262 17.3338 0.0538094 17.4084C0.0934926 17.4831 0.15298 17.5453 0.225716 17.5883C0.298451 17.6312 0.381612 17.6532 0.466035 17.6519H7.64479L1.30839 30.0737C1.27201 30.1476 1.25491 30.2295 1.25869 30.3118C1.26247 30.3941 1.287 30.474 1.33 30.5443C1.37299 30.6145 1.43305 30.6726 1.50456 30.7133C1.57607 30.754 1.6567 30.7758 1.73893 30.7768H4.54679C4.61175 30.7773 4.67608 30.7642 4.7357 30.7383C4.79532 30.7125 4.84892 30.6746 4.89309 30.6268L21.3378 12.8237C21.4031 12.7571 21.447 12.6724 21.4639 12.5806C21.4809 12.4888 21.47 12.394 21.4328 12.3084C21.3956 12.2227 21.3337 12.1502 21.2551 12.1001C21.1765 12.0499 21.0847 12.0244 20.9915 12.0269H14.6832L23.8836 1.54561C23.9429 1.47903 23.9816 1.39658 23.9949 1.30834C24.0082 1.2201 23.9955 1.12989 23.9585 1.04874Z" fill="#2B788B"/>
</svg>
